<svg id="bb99f74c-3ed9-49e6-a49d-4278095e9eb8" data-name="Layer 1" xmlns="http://www.w3.org/2000/svg" viewBox="0 0 721.15 721.15">
  <defs>
    <style>
      .b7f020c8-21d1-45ef-a459-72a5a42a922e {
        fill: #db3927;
      }

      .f3453fbf-8953-4617-be51-1fdd2b97b00e {
        fill: #cb3628;
      }

      .b1a4fc53-aae5-4eb9-9b7b-a01bc1a54fac {
        fill: #fff;
      }

      .a7859bd4-b053-4c5f-990d-c4f71d480e38 {
        fill: #e3e3e2;
      }
    </style>
  </defs>
  <title>Product_Icon-Red_Hat-Metering-RGB</title>
  <circle class="b7f020c8-21d1-45ef-a459-72a5a42a922e" cx="360.575" cy="360.575" r="358.576"/>
  <path class="f3453fbf-8953-4617-be51-1fdd2b97b00e" d="M615.53,108.916,108.464,615.983c140.143,138.617,366.111,138.164,505.671-1.4S754.149,249.059,615.53,108.916Z"/>
  <path class="b1a4fc53-aae5-4eb9-9b7b-a01bc1a54fac" d="M370.131,163.932l170.3,98.321V458.9l-170.3,98.321L199.833,458.9V262.253l170.3-98.321m0-23.094-10,5.773-170.3,98.322-10,5.773V470.444l10,5.773,170.3,98.322,10,5.773,10-5.773,170.3-98.322,10-5.773V250.706l-10-5.773-170.3-98.322-10-5.773Z"/>
  <polygon class="b1a4fc53-aae5-4eb9-9b7b-a01bc1a54fac" points="354.167 513.242 226.768 439.688 226.768 295.224 354.167 368.778 354.167 513.242"/>
  <polygon class="a7859bd4-b053-4c5f-990d-c4f71d480e38" points="386.017 513.242 513.416 439.688 513.416 295.224 386.017 368.778 386.017 513.242"/>
  <polygon class="b1a4fc53-aae5-4eb9-9b7b-a01bc1a54fac" points="242.693 267.972 370.092 194.418 497.491 267.972 370.092 341.526 242.693 267.972"/>
  <polygon class="b7f020c8-21d1-45ef-a459-72a5a42a922e" points="286.488 269.134 293.304 264.732 373.901 311.265 367.085 315.667 286.488 269.134"/>
  <polygon class="b7f020c8-21d1-45ef-a459-72a5a42a922e" points="300.225 269.134 345.792 242.074 360.581 250.699 315.014 277.758 300.225 269.134"/>
  <polygon class="b7f020c8-21d1-45ef-a459-72a5a42a922e" points="323.008 282.16 398.563 235.866 413.352 244.49 337.798 290.785 323.008 282.16"/>
  <polygon class="b7f020c8-21d1-45ef-a459-72a5a42a922e" points="345.792 295.187 406.84 259.347 421.63 267.972 360.581 303.811 345.792 295.187"/>
</svg>
